<?xml version="1.0" encoding="utf-8"?>
<!-- Generator: Adobe Illustrator 22.1.0, SVG Export Plug-In . SVG Version: 6.00 Build 0)  -->
<svg version="1.1" id="Layer_1" xmlns="http://www.w3.org/2000/svg" xmlns:xlink="http://www.w3.org/1999/xlink" x="0px" y="0px"
	 viewBox="0 0 64 64" style="enable-background:new 0 0 64 64;" xml:space="preserve">
<path d="M45.3,10.3c-9.7-9.7-25.3-9.7-35,0s-9.7,25.3,0,35c8.9,8.9,23,9.6,32.7,2l10.6,12c0.1,0.1,0.2,0.3,0.3,0.4
	c1.6,1.6,4.2,1.6,5.8,0c1.6-1.6,1.6-4.2,0-5.8c-0.1-0.1-0.2-0.2-0.4-0.3L47.4,43C54.9,33.3,54.2,19.2,45.3,10.3z M13.9,41.7
	c-7.7-7.7-7.7-20.1,0-27.8s20.1-7.7,27.8,0s7.7,20.1,0,27.8S21.6,49.4,13.9,41.7z"/>
</svg>
